<svg width="23" height="20" fill="none" xmlns="http://www.w3.org/2000/svg"><path d="M20.275 5.976h-4.433v-2.24C15.842 1.942 14.334.5 12.506.5h-1.988c-1.851 0-3.36 1.441-3.36 3.237v2.24H2.727c-.64 0-1.257.287-1.646.82a2.101 2.101 0 00-.342 1.906l2.17 9.29v.044A2.062 2.062 0 004.896 19.5h13.185a2.09 2.09 0 001.988-1.463l2.194-9.334c.205-.643.068-1.352-.343-1.907a2.088 2.088 0 00-1.645-.82zm-12.02-2.24c0-1.196 1.006-2.172 2.24-2.172h1.988c1.234 0 2.24.976 2.24 2.173v2.24H8.254v-2.24zm9.826 14.678H4.92a.935.935 0 01-.626-.24 1.018 1.018 0 01-.284-.435c.019.053.1.263.284.434a.88.88 0 00.626.24c5.114-.039 8.048-.039 13.162 0a.916.916 0 00.635-.228 1.107 1.107 0 00.293-.433.97.97 0 01-.928.661zm3.108-10l-1.737 7.428-.434 1.884-.009.026c-.025.07-.11.271-.293.433a.916.916 0 01-.635.229 729.13 729.13 0 00-13.162 0 .88.88 0 01-.626-.24 1.143 1.143 0 01-.288-.448L1.812 8.437v-.044a1.07 1.07 0 01.16-.976.93.93 0 01.754-.377h4.433v2.727h1.096V7.062h6.467v2.705h1.12V7.062h4.433a.93.93 0 01.754.377c.206.266.274.643.16.976z" fill="#fff"/><path d="M4.293 18.174c.17.153.391.24.626.24 5.114-.04 8.048-.04 13.162 0a.97.97 0 00.635-.23 1.107 1.107 0 00.302-.458l.434-1.884 1.737-7.427a1.06 1.06 0 00-.16-.976.93.93 0 00-.754-.377h-4.433v2.705h-1.12V7.062H8.255v2.705H7.16V7.04H2.726a.93.93 0 00-.755.377 1.07 1.07 0 00-.16.976v.044l2.194 9.29a1.143 1.143 0 00.288.447z" fill="#fff"/></svg>