<svg width="23" height="23" fill="none" xmlns="http://www.w3.org/2000/svg"><g clip-path="url(#clip0_778_513)" stroke="#fff" stroke-width="1.071"><path d="M.436 22.076v-9.24 9.24zm0 0a.671.671 0 00.668.674l-.668-.674zm.536-9.24h0v-.003a.136.136 0 01.134-.136h9.246a.136.136 0 01.136.136v9.245a.135.135 0 01-.084.126.138.138 0 01-.052.01H1.106a.137.137 0 01-.134-.136v-9.242zm.806.137h-.536v8.972h8.976v-8.972h-8.44zM1.108.786v0h9.244a.136.136 0 01.136.134v9.246a.137.137 0 01-.084.126.136.136 0 01-.052.01H1.108a.135.135 0 01-.126-.083.137.137 0 01-.01-.053V.92a.136.136 0 01.136-.134zm.675.27h-.536v8.976h8.972V1.056H1.783zm11.158 2.377v0h6.753a.058.058 0 01.059.059v6.752a.058.058 0 01-.018.042.059.059 0 01-.04.017H12.94a.059.059 0 01-.054-.036.06.06 0 01-.004-.023V3.492a.058.058 0 01.058-.059zm.597.115h-.535v6.64h6.63v-6.64h-6.095zm-.515 9.024h9.111a.266.266 0 01.266.266v9.11a.266.266 0 01-.266.266h-9.111a.266.266 0 01-.266-.266v-9.11a.266.266 0 01.266-.266zm.806.53h-.536v8.582h8.571V13.1h-8.036z"/></g><defs><clipPath id="clip0_778_513"><path fill="#fff" transform="translate(.436 .25)" d="M0 0h22.5v22.5H0z"/></clipPath></defs></svg>