<svg width="45" height="40" fill="none" xmlns="http://www.w3.org/2000/svg"><path d="M40.684 11.529h-9.187V6.814c0-3.78-3.125-6.814-6.913-6.814h-4.12c-3.836 0-6.961 3.034-6.961 6.814v4.715H4.316a4.175 4.175 0 00-3.41 1.726 4.48 4.48 0 00-.71 4.014l4.499 19.557v.093C5.263 38.786 6.92 40 8.815 40h27.323c1.895 0 3.552-1.26 4.12-3.08l4.546-19.65c.426-1.354.142-2.848-.71-4.014-.805-1.074-2.084-1.727-3.41-1.727zM15.776 6.814c0-2.52 2.083-4.574 4.64-4.574h4.12c2.557 0 4.641 2.054 4.641 4.574v4.715H15.776V6.814zm20.362 30.899H8.862a1.92 1.92 0 01-1.298-.506 2.146 2.146 0 01-.588-.914c.039.112.207.553.588.914.293.28.713.51 1.298.506 10.598-.083 16.678-.083 27.276 0a1.884 1.884 0 001.315-.482c.38-.34.555-.762.608-.91l.019-.055a2.11 2.11 0 01-.627.965 1.992 1.992 0 01-1.315.482zm6.44-21.05L38.98 32.299l-.9 3.967s-.005.02-.017.055c-.054.148-.23.57-.609.91a1.884 1.884 0 01-1.315.482 1488.634 1488.634 0 00-27.276 0 1.807 1.807 0 01-1.298-.506 2.412 2.412 0 01-.588-.914l-.008-.027L2.42 16.71v-.093c-.236-.7-.094-1.447.332-2.054a1.918 1.918 0 011.563-.793h9.186v5.74h2.274v-5.693h13.401v5.694h2.32v-5.694h9.187c.616 0 1.184.28 1.563.793.426.56.568 1.354.331 2.054z" fill="#fff"/><path d="M7.564 37.207c.354.323.81.506 1.298.506 10.598-.083 16.678-.083 27.276 0 .502 0 .96-.174 1.315-.482a2.334 2.334 0 00.627-.965l.9-3.967 3.598-15.636c.237-.7.095-1.494-.331-2.054a1.918 1.918 0 00-1.563-.793h-9.187v5.694h-2.32v-5.694H15.776v5.694h-2.274v-5.741H4.316c-.616 0-1.184.28-1.563.793-.426.607-.568 1.354-.332 2.054v.093l4.547 19.557.008.027c.039.112.207.553.588.914z" fill="#fff"/><path d="M15 24l5 5 11-11" stroke="#4ED03C" stroke-width="3" stroke-linecap="round"/></svg>