<svg width="21" height="23" fill="none" xmlns="http://www.w3.org/2000/svg"><path d="M20.084 4.274l-2.796-2.926a1.765 1.765 0 00-1.28-.558c-.484 0-.94.198-1.282.558l-3.01 3.149a1.945 1.945 0 00-.534 1.344c0 .509.19.985.533 1.345l2.352 2.466a11.187 11.187 0 01-2.268 3.5 10.657 10.657 0 01-3.339 2.382l-2.352-2.467a1.765 1.765 0 00-1.28-.558 1.72 1.72 0 00-.695.144c-.22.096-.42.237-.587.414L.533 16.216A1.945 1.945 0 000 17.56c0 .509.189.985.533 1.345l2.793 2.925c.583.61 1.386.96 2.21.96.17 0 .336-.014.504-.044 3.476-.6 6.925-2.538 9.71-5.452 2.783-2.92 4.63-6.534 5.208-10.177a3.377 3.377 0 00-.874-2.843zm-.987 2.516c-.512 3.242-2.176 6.475-4.683 9.101-2.507 2.626-5.591 4.37-8.686 4.906a1.2 1.2 0 01-1.071-.363L1.914 17.56l2.908-3.05 3.145 3.3.024.025.567-.22a12.582 12.582 0 004.575-3.065 13.326 13.326 0 002.924-4.793l.21-.594-3.17-3.32 2.908-3.048 2.743 2.873c.283.297.415.715.349 1.122z" fill="#282828"/></svg>