<svg width="22" height="23" fill="none" xmlns="http://www.w3.org/2000/svg"><path d="M19.132 2.968c-.55-.5-2.772-2.097-7.729-2.119 0 0-5.843-.346-8.688 2.239C1.132 4.654.574 6.952.513 9.798c-.06 2.845-.134 8.178 5.06 9.624h.005l-.005 2.208s-.034.894.563 1.074c.718.223 1.141-.458 1.83-1.19.375-.402.894-.992 1.288-1.442 3.555.296 6.284-.38 6.595-.479.718-.231 4.78-.745 5.437-6.077.683-5.503-.33-8.978-2.154-10.548zm.601 10.146c-.558 4.45-3.85 4.733-4.455 4.926-.26.081-2.66.672-5.674.479 0 0-2.249 2.683-2.95 3.38-.229.227-.48.206-.475-.243 0-.296.017-3.668.017-3.668-.004 0-.004 0 0 0-4.402-1.206-4.143-5.747-4.095-8.122.047-2.375.501-4.322 1.842-5.632 2.409-2.16 7.37-1.84 7.37-1.84 4.19.017 6.197 1.267 6.664 1.686 1.544 1.31 2.331 4.442 1.756 9.034zm-6.011-3.458c.017.368-.541.394-.558.026-.048-.941-.493-1.4-1.41-1.45-.372-.022-.338-.574.03-.553 1.207.065 1.877.75 1.938 1.977zm.877.484c.044-1.814-1.102-3.235-3.278-3.394-.367-.025-.329-.577.04-.552 2.507.18 3.844 1.888 3.796 3.959-.004.368-.566.35-.558-.013zm2.033.573c.004.368-.558.373-.558.005-.026-3.488-2.374-5.388-5.224-5.41-.368-.004-.368-.551 0-.551 3.187.02 5.752 2.2 5.782 5.956zm-.489 4.198v.009c-.467.813-1.34 1.712-2.24 1.425l-.009-.013c-.912-.252-3.062-1.348-4.42-2.418A11.25 11.25 0 017.641 12.1a13.874 13.874 0 01-1.332-1.994c-.921-1.648-1.125-2.384-1.125-2.384-.29-.89.614-1.754 1.44-2.217h.01c.397-.205.778-.137 1.033.167 0 0 .536.634.765.946.216.291.506.757.658 1.019.263.466.099.941-.16 1.138l-.52.41c-.263.21-.229.6-.229.6s.77 2.88 3.646 3.607c0 0 .394.035.606-.226l.415-.514c.199-.257.679-.42 1.15-.158.636.355 1.445.907 1.981 1.408.303.243.372.616.164 1.01z" fill="#282828"/></svg>