<svg width="25" height="21" fill="none" xmlns="http://www.w3.org/2000/svg"><path d="M21.973 6.189h-4.75v-2.4c0-1.924-1.616-3.468-3.574-3.468h-2.13c-1.983 0-3.6 1.544-3.6 3.468v2.4H3.17a2.17 2.17 0 00-1.763.879c-.44.57-.587 1.33-.367 2.042l2.326 9.953v.048a2.21 2.21 0 002.13 1.568h14.127a2.24 2.24 0 002.13-1.568l2.35-10c.22-.69.073-1.45-.367-2.043a2.237 2.237 0 00-1.763-.88zm-12.878-2.4c0-1.282 1.077-2.327 2.4-2.327h2.13c1.321 0 2.399 1.045 2.399 2.327v2.4H9.095v-2.4zm10.528 15.726H5.52c-.441 0-.833-.285-.98-.737 0 0 .225.742.98.737 5.479-.043 8.622-.043 14.102 0 .785.006 1.003-.737 1.003-.737a1.04 1.04 0 01-1.003.737zm3.33-10.713l-1.861 7.957-.465 2.02s-.22.742-1.004.736c-5.48-.043-8.623-.043-14.102 0-.755.005-.98-.737-.98-.737l-2.35-9.953v-.047a1.146 1.146 0 01.171-1.045.997.997 0 01.808-.404h4.75v2.922h1.175V7.353h6.929v2.898h1.2V7.353h4.749c.318 0 .612.142.808.403.22.285.294.69.171 1.046z" fill="#fff"/></svg>