<svg width="21" height="18" fill="none" xmlns="http://www.w3.org/2000/svg"><path d="M18.423 1.213A5.383 5.383 0 0015.008.01c-1.453 0-2.86.575-3.858 1.579-.232.233-.445.49-.643.774C9.487.89 7.84 0 6.064 0c-.325 0-.655.03-.98.089-1.681.304-3.002 1.224-3.926 2.733C-.165 4.985-.27 6.982.837 8.929c.593 1.042 1.366 2.062 2.362 3.117 1.833 1.94 4.003 3.78 6.831 5.794.15.106.31.16.476.16a.85.85 0 00.527-.203c2.513-1.784 4.575-3.504 6.305-5.258.973-.987 2.075-2.2 2.88-3.707.339-.635.725-1.488.702-2.45-.05-2.108-.89-3.847-2.497-5.169zm.764 7.074c-.735 1.377-1.769 2.511-2.682 3.438-1.648 1.67-3.612 3.313-6.003 5.021-2.662-1.909-4.717-3.66-6.453-5.496-.932-.987-1.65-1.933-2.196-2.894-.892-1.568-.796-3.134.302-4.93.744-1.213 1.8-1.952 3.137-2.194.256-.047.516-.07.772-.07 1.593 0 3.004.875 3.77 2.333.043.085.086.166.157.297.1.19.3.308.514.308h.01a.584.584 0 00.514-.324c.28-.563.58-.998.95-1.37.782-.786 1.885-1.235 3.03-1.235.986 0 1.934.333 2.67.938 1.335 1.097 2.032 2.544 2.075 4.3.015.69-.279 1.336-.567 1.878z" fill="#fff"/><path d="M19.187 8.287c-.735 1.377-1.769 2.511-2.682 3.438-1.648 1.67-3.612 3.313-6.003 5.021-2.662-1.909-4.717-3.66-6.453-5.496-.932-.987-1.65-1.933-2.196-2.894-.892-1.568-.796-3.134.302-4.93.744-1.213 1.8-1.952 3.137-2.194.256-.047.516-.07.772-.07 1.593 0 3.004.875 3.77 2.333.043.085.086.166.157.297.1.19.3.308.514.308h.01a.584.584 0 00.514-.324c.28-.563.58-.998.95-1.37.782-.786 1.885-1.235 3.03-1.235.986 0 1.934.333 2.67.938 1.335 1.097 2.032 2.544 2.075 4.3.015.69-.279 1.336-.567 1.878z" fill="#fff"/></svg>