<svg width="23" height="20" fill="none" xmlns="http://www.w3.org/2000/svg"><path d="M17.665 14.383c1.117-1.85 1.65-4.053 1.327-6.305C18.256 2.926 13.416-.68 8.18.108 2.943.897-.646 5.728.097 10.924c.743 5.197 5.577 8.76 10.813 7.97a9.558 9.558 0 005.712-3.071l4.535 3.342c.193.104.424.157.642.124a.882.882 0 00.573-.352.84.84 0 00-.173-1.212l-4.534-3.342zM1.843 10.662C1.236 6.418 4.194 2.478 8.47 1.834c4.276-.644 8.213 2.257 8.82 6.5.606 4.244-2.352 8.184-6.629 8.829-4.276.644-8.219-2.301-8.82-6.502z" fill="#282828"/></svg>