<svg width="22" height="25" fill="none" xmlns="http://www.w3.org/2000/svg"><path d="M17.73 18.094c1.648-1.625 2.783-3.772 3.043-6.195.597-5.545-3.476-10.568-9.121-11.132C6.006.202 1.003 4.27.402 9.862-.2 15.454 3.878 20.43 9.524 20.995a10.24 10.24 0 006.743-1.681l3.825 4.668c.173.16.398.276.633.3a.945.945 0 00.69-.214.9.9 0 00.14-1.305l-3.826-4.669zM2.283 10.05c.49-4.566 4.603-7.876 9.214-7.415 4.61.461 7.931 4.514 7.44 9.08-.49 4.567-4.603 7.877-9.214 7.416-4.61-.461-7.926-4.56-7.44-9.08z" fill="#fff"/></svg>