<svg width="348" height="21" fill="none" xmlns="http://www.w3.org/2000/svg"><path d="M192.497 5.168c.004-1.817.353-3.058 1.046-3.725.691-.667 2.024-.999 3.994-.994l14.931.034c1.971.005 3.3.342 3.99 1.012.689.67 1.031 1.913 1.027 3.73l-.024 10.538c-.004 1.829-.352 3.077-1.044 3.744-.693.654-2.024.98-3.995.975l-14.93-.034c-1.971-.005-3.302-.336-3.99-.993-.69-.67-1.033-1.92-1.029-3.749l.024-10.538zm4.696 11.514l15.564.035.029-12.657-15.564-.036-.029 12.658zM248.738 3.82l-10.766-.024-.011 4.768 10.766.025c.819.001 1.383-.105 1.691-.318.319-.214.481-.586.482-1.115l.004-1.892c.001-.518-.159-.884-.477-1.099-.307-.228-.87-.342-1.689-.344zm-.018 8.06l-10.766-.024-.012 5.09 10.766.024c.896.002 1.497-.129 1.805-.393.321-.264.482-.73.483-1.399l.004-1.514c.001-.668-.157-1.129-.477-1.382-.307-.265-.908-.4-1.803-.401zm-15.432 8.65l.046-20 17.388.04c1.6.004 2.757.315 3.473.935.714.62 1.07 1.604 1.067 2.954l-.006 2.44c-.002.96-.304 1.728-.906 2.307-.603.566-1.467.917-2.594 1.053 1.164.154 2.058.566 2.684 1.236.639.67.956 1.541.953 2.614l-.005 2.554c-.003 1.324-.498 2.307-1.485 2.948-.986.64-2.485.96-4.493.955l-16.122-.037zM275.158.625l-.037 16.233 13.454.031.038-16.233 4.702.01-.035 15.269c-.004 1.829-.354 3.077-1.046 3.744-.692.654-2.024.979-3.995.975l-12.819-.03c-1.958-.004-3.289-.335-3.99-.993-.689-.67-1.032-1.92-1.027-3.748l.035-15.269 4.72.011zm41.26 20.095L304.736.694l5.394.013 8.181 14.473L326.175.743l4.702.011-11.198 19.973-3.261-.007zm25.837.058l.046-19.999 4.722.011-.045 19.999-4.723-.011z" fill="#282828"/><path d="M16.273 3.497L5.66 3.473l-.012 5.298 10.613.024c.82.002 1.376-.11 1.67-.337.308-.239.463-.655.464-1.248l.005-2.138c.002-.58-.151-.984-.458-1.212-.294-.24-.85-.36-1.669-.363zM.978 20l.045-20 17.35.04c1.612.003 2.776.315 3.491.935.728.607 1.09 1.591 1.087 2.954l-.01 4.465c-.003 1.35-.37 2.332-1.1 2.949-.719.604-1.883.904-3.496.9L5.64 12.214l-.018 7.795L.978 20zm38.176-7.899l8.886.02-4.357-8.145-4.529 8.125zm-9.096 7.964L41.58.093l4.549.01 11.585 20.025-5.297-.012-2.428-4.376-12.858-.03-2.371 4.366-4.702-.011zM85.451 3.656l-10.613-.024-.013 5.563 10.613.024c.82.002 1.376-.11 1.67-.337.308-.239.463-.655.464-1.248l.006-2.402c.001-.58-.151-.985-.458-1.212-.294-.24-.85-.362-1.669-.364zM70.156 20.158L70.2.159l17.35.04c1.612.003 2.776.315 3.49.935.729.607 1.091 1.592 1.088 2.954l-.01 4.692c-.004 1.35-.37 2.333-1.101 2.95-.718.615-1.883.922-3.495.918l-2.649-.006 9.349 7.57-6.775-.015-8.159-7.568-4.472-.01-.017 7.55-4.644-.011zm41.205-7.891l8.886.02-4.357-8.145-4.529 8.125zm-9.096 7.964L113.787.259l4.549.01 11.585 20.025-5.297-.012-2.428-4.376-12.858-.03-2.371 4.366-4.702-.011zm44.828-3.663l6.103.014c3.25.008 5.554-.485 6.912-1.479 1.359-.993 2.041-2.637 2.046-4.933.005-2.043-.555-3.59-1.679-4.64-1.123-1.061-2.786-1.595-4.985-1.6l-8.368-.02-.029 12.658zm-4.73 3.755l.045-19.999 13.051.03c3.724.008 6.581.873 8.574 2.593 2.004 1.72 3.003 4.156 2.995 7.31-.004 1.867-.398 3.55-1.182 5.049a8.804 8.804 0 01-3.309 3.511c-.884.54-1.986.935-3.303 1.185-1.307.236-2.983.352-5.029.348l-11.842-.027z" fill="#E83841"/></svg>