<svg width="22" height="19" fill="none" xmlns="http://www.w3.org/2000/svg"><path d="M19.775 5.476h-4.433v-2.24C15.342 1.442 13.834 0 12.006 0h-1.988c-1.851 0-3.36 1.441-3.36 3.237v2.24H2.227c-.64 0-1.257.287-1.646.82a2.101 2.101 0 00-.342 1.906l2.17 9.29v.044A2.062 2.062 0 004.396 19h13.185a2.09 2.09 0 001.988-1.463l2.194-9.334c.205-.643.068-1.352-.343-1.907a2.088 2.088 0 00-1.645-.82zm-12.02-2.24c0-1.196 1.006-2.172 2.24-2.172h1.988c1.234 0 2.24.976 2.24 2.173v2.24H7.754v-2.24z" fill="#fff"/></svg>