<svg width="26" height="25" fill="none" xmlns="http://www.w3.org/2000/svg"><path d="M2.787 12.5c0 5.37 4.351 9.722 9.72 9.722 5.37 0 9.72-4.352 9.72-9.722 0-5.37-4.35-9.722-9.72-9.722-5.369 0-9.72 4.352-9.72 9.722zm-2.777 0C.01 5.596 5.604 0 12.508 0c6.902 0 12.497 5.595 12.497 12.5 0 6.904-5.594 12.5-12.497 12.5S.01 19.405.01 12.5zm11.109-1.385v6.937a1.38 1.38 0 001.389 1.392c.772 0 1.388-.623 1.388-1.392v-6.937c0-.785-.622-1.393-1.389-1.393-.772 0-1.388.624-1.388 1.393zm0-4.17c0 .772.622 1.388 1.389 1.388.772 0 1.388-.621 1.388-1.389 0-.772-.622-1.388-1.389-1.388-.772 0-1.388.621-1.388 1.388z" fill="#FF7575"/></svg>