<svg width="25" height="25" fill="none" xmlns="http://www.w3.org/2000/svg"><path fill-rule="evenodd" clip-rule="evenodd" d="M18.8.422c.507 0 .986.2 1.345.56l3.328 3.324a3.47 3.47 0 01.97 3.008c-.679 4.082-2.85 8.14-6.13 11.426-3.282 3.279-7.341 5.453-11.42 6.124h-.001a3.247 3.247 0 01-.557.047c-.913 0-1.805-.37-2.45-1.016L.558 20.571a1.901 1.901 0 010-2.694l3.588-3.578a1.886 1.886 0 011.344-.56c.507 0 .986.201 1.344.56l2.923 2.925.16-.069a12.95 12.95 0 004.054-2.76 12.924 12.924 0 002.754-4.057l.069-.159-2.923-2.925a1.901 1.901 0 010-2.694L17.456.981a1.89 1.89 0 011.345-.56zM14.974 5.91l3.84 3.836-.193.522a14.782 14.782 0 01-8.777 8.778l-.521.193-3.837-3.842-3.824 3.827 3.447 3.447c.394.39.951.575 1.498.482 3.743-.619 7.462-2.629 10.479-5.645C20.1 14.49 22.112 10.77 22.73 7.027a1.718 1.718 0 00-.487-1.498l-3.447-3.446-3.824 3.827z" fill="#282828"/></svg>