<svg width="28" height="25" fill="none" xmlns="http://www.w3.org/2000/svg"><path d="M25.315 7.69h-5.717V4.9c0-2.24-1.944-4.037-4.301-4.037h-2.564C10.346.862 8.402 2.66 8.402 4.9v2.79H2.685c-.825 0-1.62.36-2.121 1.023a2.552 2.552 0 00-.442 2.377L2.92 22.675v.055c.354 1.106 1.385 1.825 2.564 1.825h17.001c1.179 0 2.21-.747 2.563-1.825l2.83-11.639c.264-.801.087-1.686-.443-2.377a2.725 2.725 0 00-2.121-1.023zM9.815 4.9c0-1.493 1.297-2.71 2.889-2.71h2.563c1.591 0 2.888 1.217 2.888 2.71v2.79h-8.34V4.899zm12.672 18.3H5.514c-.53 0-1.002-.332-1.179-.857 0 0 .271.864 1.179.857 6.594-.05 10.378-.05 16.972 0 .945.007 1.208-.857 1.208-.857a1.247 1.247 0 01-1.208.857zm4.007-12.468l-2.24 9.261-.559 2.35s-.263.864-1.208.857c-6.594-.05-10.378-.05-16.972 0-.908.007-1.179-.857-1.179-.857L1.507 10.759v-.055c-.148-.415-.06-.857.206-1.216.236-.304.59-.47.972-.47h5.717v3.4h1.414V9.045h8.339v3.373h1.443V9.045h5.717c.383 0 .736.166.972.47.265.332.354.802.206 1.217z" fill="#fff"/></svg>