<svg width="42" height="36" fill="none" xmlns="http://www.w3.org/2000/svg"><path d="M37.837 10.205H29.33V6.08c0-3.308-2.894-5.963-6.401-5.963h-3.815c-3.552 0-6.446 2.655-6.446 5.963v4.125H4.162c-1.228 0-2.412.53-3.157 1.51a3.748 3.748 0 00-.658 3.513L4.513 32.34v.082c.526 1.633 2.06 2.695 3.815 2.695h25.3c1.753 0 3.288-1.102 3.814-2.695l4.21-17.194c.394-1.184.13-2.491-.658-3.512a4.066 4.066 0 00-3.157-1.511zM14.773 6.08c0-2.206 1.93-4.002 4.297-4.002h3.815c2.367 0 4.297 1.796 4.297 4.002v4.125H14.773V6.08zm18.854 27.036H8.371a1.838 1.838 0 01-1.745-1.242c.035.098.191.484.543.8.272.244.661.446 1.202.442 9.813-.073 15.443-.073 25.256 0 .547.004.941-.187 1.218-.422a2.033 2.033 0 00.563-.796 1.845 1.845 0 01-.563.796c-.33.27-.753.422-1.218.422zm5.963-18.419l-3.332 13.681-.833 3.472-.017.048c-.049.13-.212.498-.563.796-.277.235-.67.426-1.218.422-9.813-.073-15.443-.073-25.256 0a1.725 1.725 0 01-1.202-.442 2.095 2.095 0 01-.543-.8l-.009-.024-4.209-17.112v-.082c-.22-.612-.088-1.266.307-1.797a1.81 1.81 0 011.447-.694h8.506v5.023h2.105v-4.982h12.409v4.982h2.148v-4.982h8.507c.57 0 1.096.245 1.446.694.395.49.527 1.184.307 1.797z" fill="#fff"/><path d="M7.17 32.674c.328.282.75.442 1.201.442 9.813-.073 15.443-.073 25.256 0 .465 0 .888-.152 1.218-.422a2.033 2.033 0 00.58-.844l.833-3.472 3.332-13.68a1.887 1.887 0 00-.307-1.798 1.81 1.81 0 00-1.446-.694H29.33v4.982h-2.148v-4.982H14.773v4.982h-2.105v-5.023H4.162c-.57 0-1.096.245-1.447.694-.395.531-.526 1.185-.307 1.797v.082l4.21 17.112.008.024c.035.098.191.484.543.8z" fill="#fff"/></svg>